<?xml version="1.0" standalone="no"?><svg xmlns="http://www.w3.org/2000/svg" viewBox="0 0 1440 320"><path fill="#3a1866" fill-opacity="0.94" d="M0,320L12,282.7C24,245,48,171,72,122.7C96,75,120,53,144,48C168,43,192,53,216,74.7C240,96,264,128,288,154.7C312,181,336,203,360,181.3C384,160,408,96,432,106.7C456,117,480,203,504,224C528,245,552,203,576,165.3C600,128,624,96,648,117.3C672,139,696,213,720,224C744,235,768,181,792,133.3C816,85,840,43,864,53.3C888,64,912,128,936,128C960,128,984,64,1008,37.3C1032,11,1056,21,1080,69.3C1104,117,1128,203,1152,224C1176,245,1200,203,1224,160C1248,117,1272,75,1296,90.7C1320,107,1344,181,1368,208C1392,235,1416,213,1428,202.7L1440,192L1440,320L1428,320C1416,320,1392,320,1368,320C1344,320,1320,320,1296,320C1272,320,1248,320,1224,320C1200,320,1176,320,1152,320C1128,320,1104,320,1080,320C1056,320,1032,320,1008,320C984,320,960,320,936,320C912,320,888,320,864,320C840,320,816,320,792,320C768,320,744,320,720,320C696,320,672,320,648,320C624,320,600,320,576,320C552,320,528,320,504,320C480,320,456,320,432,320C408,320,384,320,360,320C336,320,312,320,288,320C264,320,240,320,216,320C192,320,168,320,144,320C120,320,96,320,72,320C48,320,24,320,12,320L0,320Z"></path></svg>